<svg id="Layer_1" data-name="Layer 1" xmlns="http://www.w3.org/2000/svg" viewBox="0 0 115 145"><defs><style>.cls-1{fill:#010101;}.cls-2{fill:#00a9fc;}</style></defs><title>main_logo</title><circle class="cls-1" cx="29" cy="50.38" r="8"/><path class="cls-1" d="M112.38,45.26a5.21,5.21,0,0,0-3.31-2.51,5.7,5.7,0,0,0-1.37-.16c-2,0-4.06,0-6.09,0-.69,0-.77.08-.77.76q0,6.82,0,13.63c0,.52.15.74.7.72q1.27,0,2.55,0c.51,0,.72-.14.71-.7,0-1.41,0-2.84,0-4.32a13.75,13.75,0,0,1,1.44,0c.15,0,.31.23.4.38.74,1.38,1.49,2.76,2.2,4.16a.74.74,0,0,0,.78.46h3.23a49.12,49.12,0,0,1-1.14,7.54,52,52,0,0,1-11.41,22.1,12,12,0,0,0-3,8q0,9.68,0,19.34a.81.81,0,0,1-.46.82Q72.75,129.39,48.6,143.29c-.15.09-.32.17-.57.3V115a3.73,3.73,0,0,0-4-4c-4.92,0-9.83,0-14.74,0a7.92,7.92,0,0,1-8.11-8.12q0-9,0-18c0-2.15-1-3.17-3.21-3.17-4.58,0-9.16-.06-13.74,0a2.79,2.79,0,0,1-2.81-3.67c2.34-7.6,4.64-15.22,7-22.82.94-3,2-6.06,3-9.12h2.83V56.88c0,.72.08.8.8.8s1.62,0,2.43,0c.54,0,.71-.22.71-.73q0-5.1,0-10.19V46.1h3.12c.8,0,.88-.09.88-.9V43.37c0-.68-.11-.79-.81-.79H12.57l.21-.69a75.51,75.51,0,0,1,6-14.53C23.9,18.52,30.71,11.39,40,6.81A50.42,50.42,0,0,1,55.86,2,51.54,51.54,0,0,1,84.42,6C97.14,11.69,105.53,21.38,110,34.54A53.83,53.83,0,0,1,112.38,45.26Zm-80-2.15,2.33,0c.43,0,.65-.16.62-.63s0-1.07,0-1.6v-4h5.05v4.9c0,1.15,0,1.15,1.15,1.37l-.31.18A7.77,7.77,0,0,0,38.34,54.2a8.29,8.29,0,0,0,11.31,2.53,1,1,0,0,0,.4-.71c0-1.51,0-3,0-4.54,0-.45-.2-.63-.64-.63-.81,0-1.63,0-2.44,0-.49,0-.66.17-.64.65,0,.81,0,1.62,0,2.41-3.19.87-5.68-1.33-5.2-4.54A3.79,3.79,0,0,1,47,46.73c.49.3.74.22,1-.22.43-.68.91-1.34,1.38-2a.51.51,0,0,0-.15-.84l-.91-.56h3v.62c0,4.42,0,8.83,0,13.24,0,.47.09.72.63.72q5,0,9.92,0c.52,0,.68-.23.67-.71,0-.7,0-1.4,0-2.1s-.21-.7-.72-.69c-2,0-4,0-6,0H55.3V51.62H60c.71,0,.77-.07.78-.75V50.1c0-1.68.29-1.5-1.5-1.5h-4V46.13h9.9V56.84c0,.77.07.84.81.84h2.33c.73,0,.79-.07.79-.79q0-5.07,0-10.14V46.1h3.12c.76,0,.87-.11.87-.86s0-1.42,0-2.13H74.4V57c0,.69,0,.71.72.71h2.44c.72,0,.78-.06.78-.8V51.5h5v5.41c0,.74,0,.77.79.77h2.33c.79,0,.82,0,.82-.8V43l1.27.25v.65c0,4.38,0,8.75,0,13.13,0,.48.12.7.65.7,3.31,0,6.61,0,9.92,0,.49,0,.66-.21.66-.66,0-.72,0-1.45,0-2.16,0-.51-.17-.69-.67-.68-2,0-4,0-6,0h-.6V51.65l.36,0h4.49c.46,0,.67-.17.65-.66s0-1.1,0-1.66,0-.7-.73-.7H92.55V46.1h6.19c.77,0,.84-.06.84-.86V43.35c0-.68-.09-.77-.77-.77h-6c-.14,0-.29,0-.54,0l.44-.26A4.51,4.51,0,0,0,95,37.6a3.77,3.77,0,0,0-2.38-3.05c-1.06-.49-2.19-.85-3.28-1.29a5,5,0,0,1-1.09-.53.87.87,0,0,1,.23-1.6,2.5,2.5,0,0,1,1.4-.1,6.91,6.91,0,0,1,1.78.94c.67.48.69.52,1.26-.09L94,30.75c.66-.71.65-.89-.09-1.5a7.11,7.11,0,0,0-6.55-1.42A4,4,0,0,0,84,31.08,4,4,0,0,0,86,35.44a29.43,29.43,0,0,0,2.9,1.35c.47.22,1,.39,1.4.64A1,1,0,0,1,91,38.55a1.22,1.22,0,0,1-.95,1,2.78,2.78,0,0,1-2.1-.18,9.41,9.41,0,0,1-1.51-1c-.84-.68-.82-.7-1.61.06l-1.08,1c-.59.56-.62.66,0,1.19.76.67,1.57,1.28,2.33,1.89-.6,0-1.28,0-2,0-.5,0-.7.2-.68.7,0,.77,0,1.55,0,2.32v2.25h-5V42.73l.32-.12a7.51,7.51,0,0,0-1.78-14.56C75,27.9,73.15,28,71.29,28c-.78,0-.86.08-.86.85V42.53c-.43.16-.57,0-.71-.38-.86-2.27-1.75-4.54-2.63-6.8s-1.76-4.5-2.63-6.75a.84.84,0,0,0-.9-.64,17,17,0,0,1-1.89,0,1,1,0,0,0-1.14.78c-1.31,3.46-2.67,6.91-4,10.37a.63.63,0,0,1-.72.47H49.56V37h4.8c.49,0,.71-.16.69-.68a13.14,13.14,0,0,1,0-1.66c0-.56-.21-.7-.72-.69-1.4,0-2.8,0-4.21,0h-.57v-2.5h.58c1.92,0,3.84,0,5.76,0,.5,0,.7-.19.69-.69,0-.66,0-1.33,0-2s0-.83-.81-.83H46.4c-.77,0-.81,0-.81.82V42.33H44.32V28.89c0-.88,0-.92-.89-.92H41.27c-.84,0-.89.05-.89.87v4.38H35.33c0-1.53,0-3,0-4.56,0-.51-.21-.7-.7-.69s-1.25,0-1.88,0c-1.42,0-1.37-.12-1.37,1.34,0,4.47,0,8.94,0,13.41L31,42.64a7.73,7.73,0,0,0-9.69,8.62,7.31,7.31,0,0,0,5.21,6.24,7.77,7.77,0,0,0,9.79-9.94A7.78,7.78,0,0,0,32.38,43.11Z"/><path class="cls-1" d="M104.92,45.68c.92,0,1.78,0,2.63.13a1.79,1.79,0,0,1,1.38,1.78,1.63,1.63,0,0,1-1.37,1.75,25.67,25.67,0,0,1-2.64,0V45.68Z"/><path class="cls-1" d="M110.52,51.78a5.17,5.17,0,0,0,2.32-2.94l.16,0v7.59l-1.26-2.36Z"/><path class="cls-2" d="M31.54,42.72l1,.39a7.73,7.73,0,0,1,3.93,4.45,7.41,7.41,0,0,1-1.75,8,7.37,7.37,0,0,1-8,2,7.32,7.32,0,0,1-5.21-6.24,7.74,7.74,0,0,1,9.7-8.62Zm-2.38,3.4a4,4,0,1,0,3.83,4A3.89,3.89,0,0,0,29.16,46.12Z"/><path class="cls-1" d="M74.57,39.46V31.64a6.36,6.36,0,0,1,3.15.4,3.89,3.89,0,0,1,2.13,4.23,3.82,3.82,0,0,1-3.45,3.08C75.8,39.4,75.19,39.42,74.57,39.46Z"/><path class="cls-1" d="M59.26,42.54c.22-.57.4-1.1.63-1.62a.53.53,0,0,1,.39-.26c1.59,0,3.17,0,4.76,0a.53.53,0,0,1,.41.24c.23.52.41,1.06.63,1.64Z"/><path class="cls-1" d="M61.16,37.33l1.51-4.6,1.54,4.6Z"/><path class="cls-1" d="M29.16,46.12a4,4,0,0,1,0,8,4,4,0,0,1,0-8Z"/></svg>